<svg width="498" height="502" viewBox="0 0 498 502" fill="none" xmlns="http://www.w3.org/2000/svg">
<path d="M66.4769 499.843H64.1904L64.6539 1.42387H66.9403L66.4769 499.843Z" fill="#6B6B6A" fill-opacity="0.2"/>
<path d="M139.813 501.452H137.542L138.005 3.03348H140.276L139.813 501.452Z" fill="#6B6B6A" fill-opacity="0.2"/>
<path d="M213.165 498.434L210.894 498.419L211.342 0L213.628 0.0154769L213.165 498.434Z" fill="#6B6B6A" fill-opacity="0.2"/>
<path d="M286.5 501.592H284.229L284.693 3.17277H286.964L286.5 501.592Z" fill="#6B6B6A" fill-opacity="0.2"/>
<path d="M359.852 501.653H357.565L358.029 3.23467H360.3L359.852 501.653Z" fill="#6B6B6A" fill-opacity="0.2"/>
<path d="M433.188 501.731H430.917L431.38 3.31207H433.651L433.188 501.731Z" fill="#6B6B6A" fill-opacity="0.2"/>
<path d="M497.857 70.0331L0.339844 69.5688V67.2782L497.857 67.7425V70.0331Z" fill="#6B6B6A" fill-opacity="0.2"/>
<path d="M497.78 143.502L0.262695 143.038V140.763L497.78 141.227V143.502Z" fill="#6B6B6A" fill-opacity="0.2"/>
<path d="M497.718 216.986L0.201172 216.522V214.232L497.718 214.696V216.986Z" fill="#6B6B6A" fill-opacity="0.2"/>
<path d="M497.641 290.455L0.124023 289.991V287.716L497.656 288.18L497.641 290.455Z" fill="#6B6B6A" fill-opacity="0.2"/>
<path d="M497.578 363.94L0.0615234 363.476V361.185L497.578 361.649V363.94Z" fill="#6B6B6A" fill-opacity="0.2"/>
<path d="M497.517 437.409L0 436.944V434.669L497.517 435.134V437.409Z" fill="#6B6B6A" fill-opacity="0.2"/>
</svg>
