<svg width="46" height="56" viewBox="0 0 46 56" fill="none" xmlns="http://www.w3.org/2000/svg">
<path d="M39.1835 28.3764C38.9886 28.1828 38.7574 28.0295 38.5032 27.9253C38.249 27.821 37.9768 27.7679 37.702 27.7688C37.4273 27.7698 37.1554 27.8249 36.902 27.9309C36.6485 28.037 36.4185 28.1919 36.2249 28.3868C36.0313 28.5818 35.878 28.8129 35.7738 29.0671C35.6695 29.3213 35.6164 29.5936 35.6174 29.8683C35.6183 30.143 35.6734 30.4149 35.7794 30.6683C35.8855 30.9218 36.0404 31.1519 36.2353 31.3454C38.0046 33.0959 39.409 35.18 40.3673 37.477C41.3256 39.774 41.8187 42.2383 41.818 44.7272C41.818 47.2781 34.479 50.9999 23 50.9999C11.521 50.9999 4.18192 47.2781 4.18192 44.7272C4.1786 42.2547 4.66255 39.8058 5.60611 37.5205C6.54967 35.2351 7.93433 33.1581 9.68097 31.4082C10.0704 31.0164 10.289 30.4865 10.289 29.9341C10.289 29.3817 10.0704 28.8518 9.68097 28.46C9.28922 28.0706 8.75928 27.852 8.20689 27.852C7.65451 27.852 7.12457 28.0706 6.73281 28.46C4.58986 30.591 2.89128 33.1262 1.73555 35.9186C0.579825 38.711 -0.0100512 41.7051 0.000129568 44.7272C0.000129568 51.5226 11.8555 55.1816 23 55.1816C34.1444 55.1816 45.9998 51.5226 45.9998 44.7272C46.0078 41.6854 45.4091 38.6727 44.2387 35.8651C43.0683 33.0576 41.3497 30.5117 39.1835 28.3764Z" fill="#767676"/>
<path d="M22.9995 30.0909C25.8943 30.0909 28.7241 29.2325 31.131 27.6242C33.5379 26.016 35.4139 23.7301 36.5217 21.0557C37.6295 18.3813 37.9193 15.4384 37.3546 12.5992C36.7898 9.76008 35.3959 7.15215 33.3489 5.10523C31.302 3.05831 28.6941 1.66434 25.8549 1.0996C23.0158 0.534854 20.0729 0.824701 17.3985 1.93249C14.7241 3.04027 12.4382 4.91624 10.8299 7.32316C9.22168 9.73008 8.36328 12.5599 8.36328 15.4546C8.36328 19.3364 9.90531 23.0592 12.6501 25.804C15.395 28.5489 19.1178 30.0909 22.9995 30.0909ZM22.9995 5.00016C25.0672 5.00016 27.0885 5.6133 28.8077 6.76205C30.527 7.91081 31.867 9.54357 32.6582 11.4539C33.4495 13.3642 33.6565 15.4662 33.2531 17.4942C32.8498 19.5222 31.8541 21.385 30.392 22.8471C28.9299 24.3091 27.0671 25.3048 25.0391 25.7082C23.0111 26.1116 20.9091 25.9046 18.9988 25.1133C17.0885 24.322 15.4557 22.9821 14.307 21.2628C13.1582 19.5436 12.5451 17.5223 12.5451 15.4546C12.5451 12.6819 13.6465 10.0228 15.6071 8.0622C17.5677 6.10161 20.2268 5.00016 22.9995 5.00016Z" fill="#767676"/>
</svg>
