<svg width="46" height="46" viewBox="0 0 46 46" fill="none" xmlns="http://www.w3.org/2000/svg">
<path d="M38.3915 30.6087L29.9433 22.1619L38.2736 15.498C38.8928 15.001 38.9938 14.0972 38.4982 13.4766C38.0012 12.8602 37.0999 12.7564 36.4767 13.2519L23.0002 24.0346L9.52361 13.2519C8.90297 12.7564 7.99914 12.8602 7.50212 13.4766C7.00655 14.0972 7.10753 15.001 7.72673 15.498L16.0556 22.1619L7.60886 30.6087C7.04715 31.1704 7.04715 32.08 7.60886 32.6413C7.88953 32.922 8.25753 33.0625 8.62517 33.0625C8.99281 33.0625 9.36081 32.922 9.64148 32.6413L18.2665 24.0163C18.2834 23.9994 18.2891 23.9771 18.3042 23.9602L22.1017 26.998C22.3641 27.2072 22.6828 27.3125 23.0002 27.3125C23.3175 27.3125 23.6363 27.2072 23.8986 26.998L27.6958 23.9602C27.7112 23.9771 27.717 23.9994 27.7335 24.0163L36.3585 32.6413C36.6395 32.922 37.0075 33.0625 37.3752 33.0625C37.7428 33.0625 38.1108 32.922 38.3915 32.6413C38.9532 32.08 38.9532 31.17 38.3915 30.6087Z" fill="#767676"/>
<path d="M37.375 5.75H8.625C3.86184 5.75 0 9.61184 0 14.375V31.625C0 36.3882 3.86184 40.25 8.625 40.25H37.375C42.1382 40.25 46 36.3882 46 31.625V14.375C46 9.61184 42.1382 5.75 37.375 5.75ZM43.125 31.625C43.125 34.7961 40.5461 37.375 37.375 37.375H8.625C5.45388 37.375 2.875 34.7961 2.875 31.625V14.375C2.875 11.2039 5.45388 8.625 8.625 8.625H37.375C40.5461 8.625 43.125 11.2039 43.125 14.375V31.625Z" fill="#767676"/>
</svg>
