<svg width="345" height="484" viewBox="0 0 345 484" fill="none" xmlns="http://www.w3.org/2000/svg">
<g clip-path="url(#clip0)">
<path d="M172.76 438.73C173.96 438.73 174.93 439.71 174.93 440.91C174.93 442.11 173.96 443.08 172.76 443.08C171.56 443.08 170.59 442.11 170.59 440.91C170.59 439.71 171.56 438.73 172.76 438.73Z" fill="#F2F2F2"/>
<path d="M172.76 478.65C173.96 478.65 174.93 479.63 174.93 480.83C174.93 482.03 173.96 483 172.76 483C171.56 483 170.59 482.03 170.59 480.83C170.59 479.63 171.56 478.65 172.76 478.65Z" fill="#F2F2F2"/>
<path d="M138.75 438.73C139.95 438.73 140.92 439.71 140.92 440.91C140.92 442.11 139.95 443.08 138.75 443.08C137.55 443.08 136.58 442.11 136.58 440.91C136.58 439.71 137.55 438.73 138.75 438.73Z" fill="#F2F2F2"/>
<path d="M138.75 478.65C139.95 478.65 140.92 479.63 140.92 480.83C140.92 482.03 139.95 483 138.75 483C137.55 483 136.58 482.03 136.58 480.83C136.58 479.63 137.55 478.65 138.75 478.65Z" fill="#F2F2F2"/>
<path d="M104.74 438.73C105.94 438.73 106.91 439.71 106.91 440.91C106.91 442.11 105.94 443.08 104.74 443.08C103.54 443.08 102.56 442.11 102.56 440.91C102.56 439.71 103.54 438.73 104.74 438.73Z" fill="#F2F2F2"/>
<path d="M104.74 478.65C105.94 478.65 106.91 479.63 106.91 480.83C106.91 482.03 105.94 483 104.74 483C103.54 483 102.56 482.03 102.56 480.83C102.56 479.63 103.54 478.65 104.74 478.65Z" fill="#F2F2F2"/>
<path d="M70.7198 438.73C71.9198 438.73 72.8998 439.71 72.8998 440.91C72.8998 442.11 71.9198 443.08 70.7198 443.08C69.5198 443.08 68.5498 442.11 68.5498 440.91C68.5498 439.71 69.5198 438.73 70.7198 438.73Z" fill="#F2F2F2"/>
<path d="M70.7198 478.65C71.9198 478.65 72.8998 479.63 72.8998 480.83C72.8998 482.03 71.9198 483 70.7198 483C69.5198 483 68.5498 482.03 68.5498 480.83C68.5498 479.63 69.5198 478.65 70.7198 478.65Z" fill="#F2F2F2"/>
<path d="M36.71 438.73C37.91 438.73 38.88 439.71 38.88 440.91C38.88 442.11 37.91 443.08 36.71 443.08C35.51 443.08 34.54 442.11 34.54 440.91C34.54 439.71 35.51 438.73 36.71 438.73Z" fill="#F2F2F2"/>
<path d="M36.71 478.65C37.91 478.65 38.88 479.63 38.88 480.83C38.88 482.03 37.91 483 36.71 483C35.51 483 34.54 482.03 34.54 480.83C34.54 479.63 35.51 478.65 36.71 478.65Z" fill="#F2F2F2"/>
<path d="M342.83 -0.380005C344.03 -0.380005 345 0.599995 345 1.79999C345 2.99999 344.03 3.97 342.83 3.97C341.63 3.97 340.65 2.99999 340.65 1.79999C340.65 0.599995 341.63 -0.380005 342.83 -0.380005Z" fill="#F2F2F2"/>
<path d="M342.83 39.54C344.03 39.54 345 40.52 345 41.72C345 42.92 344.03 43.89 342.83 43.89C341.63 43.89 340.65 42.92 340.65 41.72C340.65 40.52 341.63 39.54 342.83 39.54Z" fill="#F2F2F2"/>
<path d="M342.83 79.46C344.03 79.46 345 80.43 345 81.63C345 82.83 344.03 83.81 342.83 83.81C341.63 83.81 340.65 82.83 340.65 81.63C340.65 80.43 341.63 79.46 342.83 79.46Z" fill="#F2F2F2"/>
<path d="M342.83 119.38C344.03 119.38 345 120.35 345 121.55C345 122.75 344.03 123.73 342.83 123.73C341.63 123.73 340.65 122.75 340.65 121.55C340.65 120.35 341.63 119.38 342.83 119.38Z" fill="#F2F2F2"/>
<path d="M342.83 159.3C344.03 159.3 345 160.27 345 161.47C345 162.67 344.03 163.65 342.83 163.65C341.63 163.65 340.65 162.67 340.65 161.47C340.65 160.27 341.63 159.3 342.83 159.3Z" fill="#F2F2F2"/>
<path d="M342.83 199.22C344.03 199.22 345 200.19 345 201.39C345 202.59 344.03 203.56 342.83 203.56C341.63 203.56 340.65 202.59 340.65 201.39C340.65 200.19 341.63 199.22 342.83 199.22Z" fill="#F2F2F2"/>
<path d="M342.83 239.14C344.03 239.14 345 240.11 345 241.31C345 242.51 344.03 243.48 342.83 243.48C341.63 243.48 340.65 242.51 340.65 241.31C340.65 240.11 341.63 239.14 342.83 239.14Z" fill="#F2F2F2"/>
<path d="M342.83 279.06C344.03 279.06 345 280.03 345 281.23C345 282.43 344.03 283.4 342.83 283.4C341.63 283.4 340.65 282.43 340.65 281.23C340.65 280.03 341.63 279.06 342.83 279.06Z" fill="#F2F2F2"/>
<path d="M342.83 318.98C344.03 318.98 345 319.95 345 321.15C345 322.35 344.03 323.32 342.83 323.32C341.63 323.32 340.65 322.35 340.65 321.15C340.65 319.95 341.63 318.98 342.83 318.98Z" fill="#F2F2F2"/>
<path d="M342.83 358.9C344.03 358.9 345 359.87 345 361.07C345 362.27 344.03 363.24 342.83 363.24C341.63 363.24 340.65 362.27 340.65 361.07C340.65 359.87 341.63 358.9 342.83 358.9Z" fill="#F2F2F2"/>
<path d="M342.83 398.82C344.03 398.82 345 399.79 345 400.99C345 402.19 344.03 403.16 342.83 403.16C341.63 403.16 340.65 402.19 340.65 400.99C340.65 399.79 341.63 398.82 342.83 398.82Z" fill="#F2F2F2"/>
<path d="M342.83 438.73C344.03 438.73 345 439.71 345 440.91C345 442.11 344.03 443.08 342.83 443.08C341.63 443.08 340.65 442.11 340.65 440.91C340.65 439.71 341.63 438.73 342.83 438.73Z" fill="#F2F2F2"/>
<path d="M342.83 478.65C344.03 478.65 345 479.63 345 480.83C345 482.03 344.03 483 342.83 483C341.63 483 340.65 482.03 340.65 480.83C340.65 479.63 341.63 478.65 342.83 478.65Z" fill="#F2F2F2"/>
<path d="M308.81 -0.380005C310.01 -0.380005 310.99 0.599995 310.99 1.79999C310.99 2.99999 310.01 3.97 308.81 3.97C307.61 3.97 306.64 2.99999 306.64 1.79999C306.64 0.599995 307.61 -0.380005 308.81 -0.380005Z" fill="#F2F2F2"/>
<path d="M308.81 39.54C310.01 39.54 310.99 40.52 310.99 41.72C310.99 42.92 310.01 43.89 308.81 43.89C307.61 43.89 306.64 42.92 306.64 41.72C306.64 40.52 307.61 39.54 308.81 39.54Z" fill="#F2F2F2"/>
<path d="M308.81 79.46C310.01 79.46 310.99 80.43 310.99 81.63C310.99 82.83 310.01 83.81 308.81 83.81C307.61 83.81 306.64 82.83 306.64 81.63C306.64 80.43 307.61 79.46 308.81 79.46Z" fill="#F2F2F2"/>
<path d="M308.81 119.38C310.01 119.38 310.99 120.35 310.99 121.55C310.99 122.75 310.01 123.73 308.81 123.73C307.61 123.73 306.64 122.75 306.64 121.55C306.64 120.35 307.61 119.38 308.81 119.38Z" fill="#F2F2F2"/>
<path d="M308.81 159.3C310.01 159.3 310.99 160.27 310.99 161.47C310.99 162.67 310.01 163.65 308.81 163.65C307.61 163.65 306.64 162.67 306.64 161.47C306.64 160.27 307.61 159.3 308.81 159.3Z" fill="#F2F2F2"/>
<path d="M308.81 199.22C310.01 199.22 310.99 200.19 310.99 201.39C310.99 202.59 310.01 203.56 308.81 203.56C307.61 203.56 306.64 202.59 306.64 201.39C306.64 200.19 307.61 199.22 308.81 199.22Z" fill="#F2F2F2"/>
<path d="M308.81 239.14C310.01 239.14 310.99 240.11 310.99 241.31C310.99 242.51 310.01 243.48 308.81 243.48C307.61 243.48 306.64 242.51 306.64 241.31C306.64 240.11 307.61 239.14 308.81 239.14Z" fill="#F2F2F2"/>
<path d="M308.81 279.06C310.01 279.06 310.99 280.03 310.99 281.23C310.99 282.43 310.01 283.4 308.81 283.4C307.61 283.4 306.64 282.43 306.64 281.23C306.64 280.03 307.61 279.06 308.81 279.06Z" fill="#F2F2F2"/>
<path d="M308.81 318.98C310.01 318.98 310.99 319.95 310.99 321.15C310.99 322.35 310.01 323.32 308.81 323.32C307.61 323.32 306.64 322.35 306.64 321.15C306.64 319.95 307.61 318.98 308.81 318.98Z" fill="#F2F2F2"/>
<path d="M308.81 358.9C310.01 358.9 310.99 359.87 310.99 361.07C310.99 362.27 310.01 363.24 308.81 363.24C307.61 363.24 306.64 362.27 306.64 361.07C306.64 359.87 307.61 358.9 308.81 358.9Z" fill="#F2F2F2"/>
<path d="M308.81 398.82C310.01 398.82 310.99 399.79 310.99 400.99C310.99 402.19 310.01 403.16 308.81 403.16C307.61 403.16 306.64 402.19 306.64 400.99C306.64 399.79 307.61 398.82 308.81 398.82Z" fill="#F2F2F2"/>
<path d="M308.81 438.73C310.01 438.73 310.99 439.71 310.99 440.91C310.99 442.11 310.01 443.08 308.81 443.08C307.61 443.08 306.64 442.11 306.64 440.91C306.64 439.71 307.61 438.73 308.81 438.73Z" fill="#F2F2F2"/>
<path d="M308.81 478.65C310.01 478.65 310.99 479.63 310.99 480.83C310.99 482.03 310.01 483 308.81 483C307.61 483 306.64 482.03 306.64 480.83C306.64 479.63 307.61 478.65 308.81 478.65Z" fill="#F2F2F2"/>
<path d="M274.8 -0.380005C276 -0.380005 276.97 0.599995 276.97 1.79999C276.97 2.99999 276 3.97 274.8 3.97C273.6 3.97 272.63 2.99999 272.63 1.79999C272.63 0.599995 273.6 -0.380005 274.8 -0.380005Z" fill="#F2F2F2"/>
<path d="M274.8 39.54C276 39.54 276.97 40.52 276.97 41.72C276.97 42.92 276 43.89 274.8 43.89C273.6 43.89 272.63 42.92 272.63 41.72C272.63 40.52 273.6 39.54 274.8 39.54Z" fill="#F2F2F2"/>
<path d="M274.8 79.46C276 79.46 276.97 80.43 276.97 81.63C276.97 82.83 276 83.81 274.8 83.81C273.6 83.81 272.63 82.83 272.63 81.63C272.63 80.43 273.6 79.46 274.8 79.46Z" fill="#F2F2F2"/>
<path d="M274.8 119.38C276 119.38 276.97 120.35 276.97 121.55C276.97 122.75 276 123.73 274.8 123.73C273.6 123.73 272.63 122.75 272.63 121.55C272.63 120.35 273.6 119.38 274.8 119.38Z" fill="#F2F2F2"/>
<path d="M274.8 159.3C276 159.3 276.97 160.27 276.97 161.47C276.97 162.67 276 163.65 274.8 163.65C273.6 163.65 272.63 162.67 272.63 161.47C272.63 160.27 273.6 159.3 274.8 159.3Z" fill="#F2F2F2"/>
<path d="M274.8 199.22C276 199.22 276.97 200.19 276.97 201.39C276.97 202.59 276 203.56 274.8 203.56C273.6 203.56 272.63 202.59 272.63 201.39C272.63 200.19 273.6 199.22 274.8 199.22Z" fill="#F2F2F2"/>
<path d="M274.8 239.14C276 239.14 276.97 240.11 276.97 241.31C276.97 242.51 276 243.48 274.8 243.48C273.6 243.48 272.63 242.51 272.63 241.31C272.63 240.11 273.6 239.14 274.8 239.14Z" fill="#F2F2F2"/>
<path d="M274.8 279.06C276 279.06 276.97 280.03 276.97 281.23C276.97 282.43 276 283.4 274.8 283.4C273.6 283.4 272.63 282.43 272.63 281.23C272.63 280.03 273.6 279.06 274.8 279.06Z" fill="#F2F2F2"/>
<path d="M274.8 318.98C276 318.98 276.97 319.95 276.97 321.15C276.97 322.35 276 323.32 274.8 323.32C273.6 323.32 272.63 322.35 272.63 321.15C272.63 319.95 273.6 318.98 274.8 318.98Z" fill="#F2F2F2"/>
<path d="M274.8 358.9C276 358.9 276.97 359.87 276.97 361.07C276.97 362.27 276 363.24 274.8 363.24C273.6 363.24 272.63 362.27 272.63 361.07C272.63 359.87 273.6 358.9 274.8 358.9Z" fill="#F2F2F2"/>
<path d="M274.8 398.82C276 398.82 276.97 399.79 276.97 400.99C276.97 402.19 276 403.16 274.8 403.16C273.6 403.16 272.63 402.19 272.63 400.99C272.63 399.79 273.6 398.82 274.8 398.82Z" fill="#F2F2F2"/>
<path d="M274.8 438.73C276 438.73 276.97 439.71 276.97 440.91C276.97 442.11 276 443.08 274.8 443.08C273.6 443.08 272.63 442.11 272.63 440.91C272.63 439.71 273.6 438.73 274.8 438.73Z" fill="#F2F2F2"/>
<path d="M274.8 478.65C276 478.65 276.97 479.63 276.97 480.83C276.97 482.03 276 483 274.8 483C273.6 483 272.63 482.03 272.63 480.83C272.63 479.63 273.6 478.65 274.8 478.65Z" fill="#F2F2F2"/>
<path d="M240.79 438.73C241.99 438.73 242.96 439.71 242.96 440.91C242.96 442.11 241.99 443.08 240.79 443.08C239.59 443.08 238.62 442.11 238.62 440.91C238.62 439.71 239.59 438.73 240.79 438.73Z" fill="#F2F2F2"/>
<path d="M240.79 478.65C241.99 478.65 242.96 479.63 242.96 480.83C242.96 482.03 241.99 483 240.79 483C239.59 483 238.62 482.03 238.62 480.83C238.62 479.63 239.59 478.65 240.79 478.65Z" fill="#F2F2F2"/>
<path d="M206.77 438.73C207.97 438.73 208.95 439.71 208.95 440.91C208.95 442.11 207.97 443.08 206.77 443.08C205.57 443.08 204.6 442.11 204.6 440.91C204.6 439.71 205.57 438.73 206.77 438.73Z" fill="#F2F2F2"/>
<path d="M206.77 478.65C207.97 478.65 208.95 479.63 208.95 480.83C208.95 482.03 207.97 483 206.77 483C205.57 483 204.6 482.03 204.6 480.83C204.6 479.63 205.57 478.65 206.77 478.65Z" fill="#F2F2F2"/>
<path d="M2.69953 437.73C3.89953 437.73 4.86953 438.71 4.86953 439.91C4.86953 441.11 3.89953 442.08 2.69953 442.08C1.49953 442.08 0.519531 441.11 0.519531 439.91C0.519531 438.71 1.49953 437.73 2.69953 437.73Z" fill="#F2F2F2"/>
<path d="M2.69953 478.65C3.89953 478.65 4.86953 479.63 4.86953 480.83C4.86953 482.03 3.89953 483 2.69953 483C1.49953 483 0.519531 482.03 0.519531 480.83C0.519531 479.63 1.49953 478.65 2.69953 478.65Z" fill="#F2F2F2"/>
</g>
<defs>
<clipPath id="clip0">
<rect width="345" height="484" fill="white"/>
</clipPath>
</defs>
</svg>
