<svg width="45" height="60" viewBox="0 0 45 60" fill="none" xmlns="http://www.w3.org/2000/svg">
<path d="M42.7649 59.7945C42.3746 59.7945 41.9913 59.6919 41.6533 59.497L22.5 48.5332L3.34669 59.497C3.00696 59.6914 2.62203 59.7933 2.23044 59.7925C1.83885 59.7917 1.45435 59.6882 1.11544 59.4924C0.776523 59.2966 0.495095 59.0153 0.299334 58.6768C0.103573 58.3382 0.000349551 57.9543 0 57.5634V2.23114C0 1.6394 0.235482 1.07191 0.654645 0.653485C1.07381 0.235066 1.64231 0 2.2351 0H42.7649C43.3577 0 43.9262 0.235066 44.3454 0.653485C44.7645 1.07191 45 1.6394 45 2.23114V57.5634C45 58.1551 44.7645 58.7226 44.3454 59.141C43.9262 59.5595 43.3577 59.7945 42.7649 59.7945ZM22.5 43.7303C22.8903 43.7304 23.2736 43.833 23.6116 44.0278L40.5298 53.7109V4.46228H4.4702V53.7109L21.3884 44.0278C21.7264 43.833 22.1097 43.7304 22.5 43.7303Z" fill="#767676"/>
</svg>
