<svg width="46" height="42" viewBox="0 0 46 42" fill="none" xmlns="http://www.w3.org/2000/svg">
<path d="M45.5983 6.95697C45.5841 6.91937 45.5691 6.88679 45.5524 6.85086C45.5323 6.80825 45.5198 6.76397 45.4964 6.72304C45.4404 6.62946 45.3703 6.54759 45.2967 6.47072C45.2901 6.46404 45.285 6.45569 45.2792 6.44984C45.1614 6.33204 45.0227 6.24598 44.8748 6.17747C44.8439 6.16076 44.8113 6.1499 44.7788 6.13737C44.6208 6.07805 44.4538 6.03544 44.28 6.03544H31.0169V1.41947C31.0169 0.635793 30.3802 0 29.5966 0H16.1037C15.3192 0 14.6826 0.635793 14.6826 1.41947V6.03544H1.4203C1.25154 6.03544 1.08945 6.07555 0.936564 6.13152C0.899803 6.14489 0.864713 6.15826 0.829623 6.1758C0.680074 6.24431 0.541385 6.3312 0.423584 6.44733C0.421077 6.44817 0.41857 6.44984 0.416064 6.45151C0.40938 6.45819 0.406038 6.46905 0.399354 6.47574C0.327504 6.55176 0.258996 6.63197 0.203855 6.72304C0.177955 6.76648 0.164588 6.81327 0.144537 6.85755C0.127827 6.89347 0.111952 6.92773 0.097749 6.96532C0.040937 7.11905 0.00501259 7.27863 0.00334164 7.44071C0.00334164 7.44572 0 7.4499 0 7.45491V40.1394C0 40.923 0.636628 41.5588 1.4203 41.5588H40.2538C43.2565 41.5588 45.6994 39.1159 45.6994 36.1132V7.45658C45.6994 7.45157 45.6961 7.44655 45.6961 7.44154C45.6944 7.27695 45.6577 7.11404 45.5983 6.95697ZM17.5232 2.83893H28.1754V6.03461H17.5232V2.83893ZM41.9181 8.87688L36.3229 19.4322H27.6516H18.0487H9.37566L3.78051 8.87605L41.9181 8.87688ZM25.9188 22.2728C25.3799 23.43 24.2069 24.2345 22.8493 24.2345C21.4917 24.2345 20.3203 23.43 19.7815 22.2728H25.9188ZM42.8588 36.1141C42.8588 37.5503 41.6909 38.7182 40.2547 38.7182H2.8406V13.1679L7.26609 21.5176C7.51423 21.9829 7.99629 22.2728 8.52181 22.2728H16.808C17.4538 25.0182 19.9101 27.0743 22.8493 27.0743C25.7902 27.0743 28.2464 25.0182 28.8923 22.2728H37.1776C37.704 22.2728 38.1861 21.9821 38.4333 21.5176L42.8588 13.1679V36.1141Z" fill="#FFCF54"/>
</svg>
