<svg width="48" height="57" viewBox="0 0 48 57" fill="none" xmlns="http://www.w3.org/2000/svg">
<path d="M47.0507 12.1966L35.803 0.92574C35.2013 0.324009 34.3912 0 33.5349 0H4.81385C2.15234 0 0 2.15234 0 4.81385V51.8646C0 54.5261 2.15234 56.6784 4.81385 56.6784H43.1858C45.8473 56.6784 47.9996 54.5261 47.9996 51.8646V14.4415C47.9996 13.5852 47.6756 12.7984 47.0507 12.1966ZM45.639 51.8414C45.639 53.1837 44.5281 54.2946 43.1858 54.2946H4.81385C3.47152 54.2946 2.36064 53.1837 2.36064 51.8414V4.81385C2.36064 3.47152 3.47152 2.36064 4.81385 2.36064H33.5581C33.7895 2.36064 33.9978 2.45321 34.1598 2.61521L45.4075 13.863C45.5695 14.025 45.6621 14.2332 45.6621 14.4647V51.8414H45.639Z" fill="#767676"/>
<path d="M42.7923 15.2978H35.1781C33.8358 15.2978 32.7249 14.187 32.7249 12.8446V5.20729C32.7249 4.55927 32.1926 4.02697 31.5446 4.02697C30.8966 4.02697 30.3643 4.55927 30.3643 5.20729V12.8215C30.3643 15.483 32.5166 17.6353 35.1781 17.6353H42.7923C43.4403 17.6353 43.9726 17.103 43.9726 16.455C43.9726 15.807 43.4403 15.2978 42.7923 15.2978Z" fill="#767676"/>
<path d="M18.6772 31.9149C19.1863 34.4838 21.4544 36.3584 24.0696 36.3584C26.6848 36.3584 28.9529 34.4838 29.462 31.9149L30.1332 28.4665C30.3646 26.8233 29.8555 25.1801 28.7677 23.9304C27.68 22.6806 26.1062 21.9632 24.463 21.9632H23.6762C22.033 21.9632 20.4592 22.6806 19.3715 23.9304C18.2837 25.1801 17.7977 26.8233 18.0291 28.5359L18.6772 31.9149ZM21.1304 25.481C21.7784 24.7404 22.681 24.3238 23.653 24.3238H24.4399C25.4119 24.3238 26.3377 24.7404 26.9625 25.481C27.6106 26.2216 27.8883 27.1936 27.7726 28.073L27.1245 31.4751C26.8468 32.9332 25.5508 33.9978 24.0465 33.9978C22.5421 33.9978 21.2692 32.9332 20.9684 31.4751L20.3203 28.1425C20.2046 27.1705 20.5055 26.1984 21.1304 25.481Z" fill="#767676"/>
<path d="M33.443 39.83L28.1432 37.9553L24.0468 42.0517L19.9504 37.9553L14.6505 39.83C13.8405 40.1077 13.2388 40.802 13.0768 41.6352L11.2021 50.4528H36.8914L35.0168 41.6352C34.8548 40.8251 34.2531 40.1308 33.443 39.83ZM14.1182 48.0922L15.3911 42.1212C15.3911 42.0749 15.4143 42.0517 15.4606 42.0517L19.3487 40.6631L24.0699 45.3844L28.7912 40.6631L32.6793 42.0517C32.7025 42.0749 32.7487 42.098 32.7487 42.1212L34.0216 48.0922H14.1182Z" fill="#767676"/>
</svg>
