<svg width="663" height="7" viewBox="0 0 663 7" fill="none" xmlns="http://www.w3.org/2000/svg">
<g clip-path="url(#clip0)">
<path d="M399.56 0.240005V4.24001L0.459961 4.24001L0.459961 0.240005L399.56 0.240005Z" fill="#939393"/>
<path d="M659.84 6.03C658.28 6.03 657.02 4.77 657.02 3.21C657.02 1.65 658.28 0.379999 659.84 0.379999C661.4 0.379999 662.659 1.65 662.659 3.21C662.659 4.77 661.4 6.03 659.84 6.03Z" fill="#939393"/>
<path d="M623.33 6.03C621.77 6.03 620.5 4.77 620.5 3.21C620.5 1.65 621.77 0.379999 623.33 0.379999C624.89 0.379999 626.15 1.65 626.15 3.21C626.15 4.77 624.89 6.03 623.33 6.03Z" fill="#939393"/>
<path d="M586.81 6.03C585.25 6.03 583.99 4.77 583.99 3.21C583.99 1.65 585.25 0.379999 586.81 0.379999C588.37 0.379999 589.64 1.65 589.64 3.21C589.64 4.77 588.37 6.03 586.81 6.03Z" fill="#939393"/>
<path d="M550.3 6.03C548.74 6.03 547.48 4.77 547.48 3.21C547.48 1.65 548.74 0.379999 550.3 0.379999C551.86 0.379999 553.13 1.65 553.13 3.21C553.13 4.77 551.86 6.03 550.3 6.03Z" fill="#939393"/>
<path d="M513.79 6.03C512.23 6.03 510.96 4.77 510.96 3.21C510.96 1.65 512.23 0.379999 513.79 0.379999C515.35 0.379999 516.61 1.65 516.61 3.21C516.61 4.77 515.35 6.03 513.79 6.03Z" fill="#939393"/>
<path d="M477.27 6.03C475.72 6.03 474.45 4.77 474.45 3.21C474.45 1.65 475.72 0.379999 477.27 0.379999C478.83 0.379999 480.1 1.65 480.1 3.21C480.1 4.77 478.83 6.03 477.27 6.03Z" fill="#939393"/>
<path d="M437.76 6.03C436.2 6.03 434.94 4.77 434.94 3.21C434.94 1.65 436.2 0.379999 437.76 0.379999C439.32 0.379999 440.59 1.65 440.59 3.21C440.59 4.77 439.32 6.03 437.76 6.03Z" fill="#939393"/>
</g>
<defs>
<clipPath id="clip0">
<rect width="7" height="663" fill="white" transform="translate(0 7) rotate(-90)"/>
</clipPath>
</defs>
</svg>
